<svg id="visual" viewBox="0 0 1920 1080" width="1920" height="1080" xmlns="http://www.w3.org/2000/svg" xmlns:xlink="http://www.w3.org/1999/xlink" version="1.1"><rect x="0" y="0" width="1920" height="1080" fill="#001220"></rect><defs><linearGradient id="grad1_0" x1="43.8%" y1="100%" x2="100%" y2="0%"><stop offset="14.444444444444446%" stop-color="#001220" stop-opacity="1"></stop><stop offset="85.55555555555554%" stop-color="#001220" stop-opacity="1"></stop></linearGradient></defs><defs><linearGradient id="grad2_0" x1="0%" y1="100%" x2="56.3%" y2="0%"><stop offset="14.444444444444446%" stop-color="#001220" stop-opacity="1"></stop><stop offset="85.55555555555554%" stop-color="#001220" stop-opacity="1"></stop></linearGradient></defs><g transform="translate(1920, 1080)"><path d="M-324 0C-319.3 -63.2 -314.6 -126.5 -280.6 -162C-246.6 -197.5 -183.2 -205.4 -131.5 -227.8C-79.8 -250.1 -39.9 -287.1 0 -324L0 0Z" fill="#FBAE3C"></path></g><g transform="translate(0, 0)"><path d="M324 0C319.8 64 315.6 128.1 280.6 162C245.6 195.9 179.9 199.7 128 221.7C76.1 243.7 38.1 283.8 0 324L0 0Z" fill="#FBAE3C"></path></g></svg>